<svg width="1239" height="42" viewBox="0 0 1239 42" fill="none" xmlns="http://www.w3.org/2000/svg">
<path d="M1.54 3.722H7.326C8.69 3.722 9.73867 3.82467 10.472 4.03C11.22 4.22067 11.748 4.536 12.056 4.976C12.364 5.40133 12.518 6.00267 12.518 6.78V8.54C12.518 8.936 12.3567 9.31 12.034 9.662C11.726 10.014 11.3593 10.256 10.934 10.388V10.498C11.4913 10.5567 11.9973 10.7987 12.452 11.224C12.9213 11.6347 13.156 12.0967 13.156 12.61V14.81C13.156 15.9687 12.694 16.79 11.77 17.274C10.846 17.758 9.416 18 7.48 18H1.54V3.722ZM7.326 9.53C7.86867 9.53 8.272 9.486 8.536 9.398C8.8 9.31 8.976 9.17067 9.064 8.98C9.16667 8.77467 9.218 8.48133 9.218 8.1V7.396C9.218 7.05867 9.174 6.80933 9.086 6.648C8.998 6.472 8.81467 6.34733 8.536 6.274C8.272 6.20067 7.84667 6.164 7.26 6.164H4.972V9.53H7.326ZM7.414 15.558C8.25 15.558 8.844 15.4627 9.196 15.272C9.548 15.0813 9.724 14.7733 9.724 14.348V13.204C9.724 12.676 9.58467 12.302 9.306 12.082C9.042 11.862 8.56533 11.752 7.876 11.752H4.972V15.558H7.414ZM20.7188 18.22C16.9495 18.22 15.0648 17.0687 15.0648 14.766V10.938C15.0648 9.60333 15.4902 8.63533 16.3408 8.034C17.2062 7.43267 18.5335 7.132 20.3228 7.132C22.0095 7.132 23.2415 7.42533 24.0188 8.012C24.8108 8.584 25.2068 9.55933 25.2068 10.938V13.534H18.2988V14.502C18.2988 15.118 18.5188 15.558 18.9588 15.822C19.3988 16.086 20.1908 16.218 21.3348 16.218C22.3908 16.218 23.5788 16.064 24.8988 15.756V17.802C23.5935 18.0807 22.2002 18.22 20.7188 18.22ZM22.1488 11.708V10.168C22.1488 9.816 22.0022 9.552 21.7088 9.376C21.4302 9.2 20.9535 9.112 20.2788 9.112C19.5015 9.112 18.9808 9.2 18.7168 9.376C18.4382 9.56667 18.2988 9.83067 18.2988 10.168V11.708H22.1488ZM30.6759 18.22C29.6786 18.22 28.9306 18.132 28.4319 17.956C27.9479 17.7653 27.6032 17.4353 27.3979 16.966C27.2072 16.482 27.1119 15.7633 27.1119 14.81C27.1119 13.9593 27.2146 13.292 27.4199 12.808C27.6399 12.324 27.9846 11.9793 28.4539 11.774C28.9379 11.554 29.5979 11.444 30.4339 11.444H34.0419V10.718C34.0419 10.2633 33.9759 9.926 33.8439 9.706C33.7266 9.486 33.4992 9.332 33.1619 9.244C32.8392 9.156 32.3479 9.112 31.6879 9.112C30.7786 9.112 29.5319 9.2 27.9479 9.376V7.352C29.1066 7.20533 30.4632 7.132 32.0179 7.132C33.3819 7.132 34.4306 7.23467 35.1639 7.44C35.9119 7.64533 36.4472 7.99733 36.7699 8.496C37.0926 8.99467 37.2539 9.72067 37.2539 10.674V18H34.1079V17.032C33.8586 17.4573 33.5212 17.758 33.0959 17.934C32.6706 18.1247 31.8639 18.22 30.6759 18.22ZM31.9299 16.218C32.5752 16.218 33.0372 16.196 33.3159 16.152C33.5212 16.1227 33.6606 16.0787 33.7339 16.02C33.8219 15.9613 33.8952 15.866 33.9539 15.734C34.0126 15.6313 34.0419 15.4773 34.0419 15.272V13.204H31.8419C31.3432 13.204 30.9912 13.2407 30.7859 13.314C30.5806 13.3727 30.4412 13.5047 30.3679 13.71C30.2946 13.9007 30.2579 14.2453 30.2579 14.744C30.2579 15.228 30.2946 15.5653 30.3679 15.756C30.4412 15.9467 30.5806 16.0713 30.7859 16.13C31.0059 16.1887 31.3872 16.218 31.9299 16.218ZM43.7759 18.22C42.4119 18.22 41.4512 17.978 40.8939 17.494C40.3512 16.9953 40.0799 16.218 40.0799 15.162V7.352H43.2919V14.722C43.2919 15.1327 43.3285 15.4407 43.4019 15.646C43.4899 15.8513 43.6512 15.998 43.8859 16.086C44.1352 16.174 44.5092 16.218 45.0079 16.218C45.6385 16.218 46.1005 16.1813 46.3939 16.108C46.6872 16.02 46.8852 15.8733 46.9879 15.668C47.0905 15.4627 47.1419 15.1473 47.1419 14.722V7.352H50.3539V18H47.1859V16.702C46.9512 17.714 45.8145 18.22 43.7759 18.22ZM58.4879 18.22C57.9452 18.22 57.4905 18.198 57.1239 18.154C56.7572 18.11 56.3905 18.022 56.0239 17.89C55.6132 17.758 55.2759 17.5747 55.0119 17.34C54.7625 17.1053 54.5572 16.7827 54.3959 16.372C54.2199 15.9467 54.1319 15.4553 54.1319 14.898V9.332H51.9759V7.352H54.1319V4.272H57.3439V7.352H60.2699V9.332H57.3439V14.348C57.3439 14.8613 57.3879 15.25 57.4759 15.514C57.5639 15.7633 57.7325 15.9467 57.9819 16.064C58.2312 16.1667 58.6125 16.218 59.1259 16.218C59.3312 16.218 59.7125 16.1813 60.2699 16.108V18.11C59.5805 18.1833 58.9865 18.22 58.4879 18.22ZM65.1368 17.912L60.8908 7.352H64.3888L66.7868 14.876L68.9648 7.352H72.2868L66.4568 22.576H63.2008L65.1368 17.912ZM0.88 36.91L8.316 27.164H1.1V24.722H12.54V26.79L5.104 36.536H12.672V39H0.88V36.91ZM19.9827 39.22C19.3227 39.22 18.78 39.198 18.3547 39.154C17.9294 39.11 17.4747 39.022 16.9907 38.89C16.4627 38.7433 16.0374 38.538 15.7147 38.274C15.392 37.9953 15.1207 37.6067 14.9007 37.108C14.6807 36.624 14.5707 36.0373 14.5707 35.348V32.202C14.5707 31.498 14.6807 30.882 14.9007 30.354C15.1207 29.826 15.4067 29.4153 15.7587 29.122C16.0667 28.8727 16.47 28.6673 16.9687 28.506C17.482 28.33 17.9807 28.22 18.4647 28.176C19.022 28.1467 19.528 28.132 19.9827 28.132C20.6574 28.132 21.1927 28.154 21.5887 28.198C21.9994 28.2273 22.4467 28.3153 22.9307 28.462C23.4587 28.6233 23.884 28.8433 24.2067 29.122C24.544 29.4007 24.83 29.7967 25.0647 30.31C25.2847 30.838 25.3947 31.4687 25.3947 32.202V35.348C25.3947 36.008 25.2847 36.5873 25.0647 37.086C24.8594 37.5847 24.588 37.9733 24.2507 38.252C23.9574 38.5013 23.554 38.7067 23.0407 38.868C22.542 39.0147 22.0507 39.11 21.5667 39.154C21.1267 39.198 20.5987 39.22 19.9827 39.22ZM19.9827 37.218C20.584 37.218 21.0387 37.174 21.3467 37.086C21.6547 36.9833 21.8674 36.8293 21.9847 36.624C22.1167 36.4187 22.1827 36.118 22.1827 35.722V31.696C22.1827 31.1093 22.0287 30.6987 21.7207 30.464C21.4127 30.2293 20.8334 30.112 19.9827 30.112C19.132 30.112 18.5527 30.2293 18.2447 30.464C17.9367 30.6987 17.7827 31.1093 17.7827 31.696V35.722C17.7827 36.118 17.8414 36.4187 17.9587 36.624C18.0907 36.8293 18.3107 36.9833 18.6187 37.086C18.9267 37.174 19.3814 37.218 19.9827 37.218ZM27.8982 28.352H31.0662V29.65C31.3156 28.638 32.4522 28.132 34.4762 28.132C35.8402 28.132 36.7936 28.3813 37.3362 28.88C37.8936 29.364 38.1722 30.134 38.1722 31.19V39H34.9602V31.608C34.9602 31.1973 34.9162 30.8893 34.8282 30.684C34.7549 30.4787 34.5936 30.332 34.3442 30.244C34.1096 30.156 33.7429 30.112 33.2442 30.112C32.6136 30.112 32.1516 30.156 31.8582 30.244C31.5649 30.3173 31.3669 30.4567 31.2642 30.662C31.1616 30.8673 31.1102 31.1827 31.1102 31.608V39H27.8982V28.352ZM46.3282 39.22C42.5589 39.22 40.6742 38.0687 40.6742 35.766V31.938C40.6742 30.6033 41.0996 29.6353 41.9502 29.034C42.8156 28.4327 44.1429 28.132 45.9322 28.132C47.6189 28.132 48.8509 28.4253 49.6282 29.012C50.4202 29.584 50.8162 30.5593 50.8162 31.938V34.534H43.9082V35.502C43.9082 36.118 44.1282 36.558 44.5682 36.822C45.0082 37.086 45.8002 37.218 46.9442 37.218C48.0002 37.218 49.1882 37.064 50.5082 36.756V38.802C49.2029 39.0807 47.8096 39.22 46.3282 39.22ZM47.7582 32.708V31.168C47.7582 30.816 47.6116 30.552 47.3182 30.376C47.0396 30.2 46.5629 30.112 45.8882 30.112C45.1109 30.112 44.5902 30.2 44.3262 30.376C44.0476 30.5667 43.9082 30.8307 43.9082 31.168V32.708H47.7582Z" fill="#2B7FFF"/>
<path d="M325.566 14.7031V27.5H322.93V16.7686H317.788V27.5H315.151V14.7031H325.566ZM330.242 19.8184V31.1562H327.711V17.9902H330.058L330.242 19.8184ZM336.263 22.6396V22.8242C336.263 23.5156 336.181 24.1572 336.017 24.749C335.858 25.3408 335.624 25.8564 335.313 26.2959C335.003 26.7295 334.616 27.0693 334.153 27.3154C333.696 27.5557 333.169 27.6758 332.571 27.6758C331.991 27.6758 331.487 27.5586 331.06 27.3242C330.632 27.0898 330.271 26.7617 329.979 26.3398C329.691 25.9121 329.46 25.417 329.284 24.8545C329.108 24.292 328.974 23.6885 328.88 23.0439V22.5605C328.974 21.8691 329.108 21.2363 329.284 20.6621C329.46 20.082 329.691 19.5811 329.979 19.1592C330.271 18.7314 330.629 18.4004 331.051 18.166C331.479 17.9316 331.979 17.8145 332.554 17.8145C333.157 17.8145 333.688 17.9287 334.145 18.1572C334.607 18.3857 334.994 18.7139 335.305 19.1416C335.621 19.5693 335.858 20.0791 336.017 20.6709C336.181 21.2627 336.263 21.9189 336.263 22.6396ZM333.723 22.8242V22.6396C333.723 22.2354 333.688 21.8633 333.617 21.5234C333.553 21.1777 333.447 20.876 333.301 20.6182C333.16 20.3604 332.973 20.1611 332.738 20.0205C332.51 19.874 332.231 19.8008 331.903 19.8008C331.558 19.8008 331.262 19.8564 331.016 19.9678C330.775 20.0791 330.579 20.2402 330.427 20.4512C330.274 20.6621 330.16 20.9141 330.084 21.207C330.008 21.5 329.961 21.8311 329.943 22.2002V23.4219C329.973 23.8555 330.055 24.2451 330.189 24.5908C330.324 24.9307 330.532 25.2002 330.813 25.3994C331.095 25.5986 331.464 25.6982 331.921 25.6982C332.255 25.6982 332.536 25.625 332.765 25.4785C332.993 25.3262 333.178 25.1182 333.318 24.8545C333.465 24.5908 333.567 24.2861 333.626 23.9404C333.69 23.5947 333.723 23.2227 333.723 22.8242ZM337.432 22.8418V22.6572C337.432 21.96 337.531 21.3184 337.73 20.7324C337.93 20.1406 338.22 19.6279 338.601 19.1943C338.981 18.7607 339.45 18.4238 340.007 18.1836C340.563 17.9375 341.202 17.8145 341.923 17.8145C342.644 17.8145 343.285 17.9375 343.848 18.1836C344.41 18.4238 344.882 18.7607 345.263 19.1943C345.649 19.6279 345.942 20.1406 346.142 20.7324C346.341 21.3184 346.44 21.96 346.44 22.6572V22.8418C346.44 23.5332 346.341 24.1748 346.142 24.7666C345.942 25.3525 345.649 25.8652 345.263 26.3047C344.882 26.7383 344.413 27.0752 343.856 27.3154C343.3 27.5557 342.661 27.6758 341.94 27.6758C341.22 27.6758 340.578 27.5557 340.016 27.3154C339.459 27.0752 338.987 26.7383 338.601 26.3047C338.22 25.8652 337.93 25.3525 337.73 24.7666C337.531 24.1748 337.432 23.5332 337.432 22.8418ZM339.963 22.6572V22.8418C339.963 23.2402 339.998 23.6123 340.068 23.958C340.139 24.3037 340.25 24.6084 340.402 24.8721C340.561 25.1299 340.766 25.332 341.018 25.4785C341.27 25.625 341.577 25.6982 341.94 25.6982C342.292 25.6982 342.594 25.625 342.846 25.4785C343.098 25.332 343.3 25.1299 343.452 24.8721C343.604 24.6084 343.716 24.3037 343.786 23.958C343.862 23.6123 343.9 23.2402 343.9 22.8418V22.6572C343.9 22.2705 343.862 21.9072 343.786 21.5674C343.716 21.2217 343.602 20.917 343.443 20.6533C343.291 20.3838 343.089 20.1729 342.837 20.0205C342.585 19.8682 342.28 19.792 341.923 19.792C341.565 19.792 341.261 19.8682 341.009 20.0205C340.763 20.1729 340.561 20.3838 340.402 20.6533C340.25 20.917 340.139 21.2217 340.068 21.5674C339.998 21.9072 339.963 22.2705 339.963 22.6572ZM358.991 21.8311V23.7998H354.157V21.8311H358.991ZM355.001 17.9902V27.5H352.47V17.9902H355.001ZM360.705 17.9902V27.5H358.165V17.9902H360.705ZM367.807 25.3555V21.1191C367.807 20.8145 367.757 20.5537 367.657 20.3369C367.558 20.1143 367.402 19.9414 367.191 19.8184C366.986 19.6953 366.72 19.6338 366.392 19.6338C366.11 19.6338 365.867 19.6836 365.662 19.7832C365.457 19.877 365.299 20.0146 365.188 20.1963C365.076 20.3721 365.021 20.5801 365.021 20.8203H362.489C362.489 20.416 362.583 20.0322 362.771 19.6689C362.958 19.3057 363.23 18.9863 363.588 18.7109C363.945 18.4297 364.37 18.21 364.862 18.0518C365.36 17.8936 365.917 17.8145 366.532 17.8145C367.271 17.8145 367.927 17.9375 368.501 18.1836C369.075 18.4297 369.526 18.7988 369.854 19.291C370.188 19.7832 370.355 20.3984 370.355 21.1367V25.2061C370.355 25.7275 370.388 26.1553 370.452 26.4893C370.517 26.8174 370.61 27.1045 370.733 27.3506V27.5H368.176C368.053 27.2422 367.959 26.9199 367.895 26.5332C367.836 26.1406 367.807 25.748 367.807 25.3555ZM368.141 21.708L368.158 23.1406H366.743C366.409 23.1406 366.119 23.1787 365.873 23.2549C365.627 23.3311 365.425 23.4395 365.267 23.5801C365.108 23.7148 364.991 23.873 364.915 24.0547C364.845 24.2363 364.81 24.4355 364.81 24.6523C364.81 24.8691 364.859 25.0654 364.959 25.2412C365.059 25.4111 365.202 25.5459 365.39 25.6455C365.577 25.7393 365.797 25.7861 366.049 25.7861C366.43 25.7861 366.761 25.71 367.042 25.5576C367.323 25.4053 367.54 25.2178 367.692 24.9951C367.851 24.7725 367.933 24.5615 367.938 24.3623L368.606 25.4346C368.513 25.6748 368.384 25.9238 368.22 26.1816C368.062 26.4395 367.859 26.6826 367.613 26.9111C367.367 27.1338 367.071 27.3184 366.726 27.4648C366.38 27.6055 365.97 27.6758 365.495 27.6758C364.892 27.6758 364.344 27.5557 363.852 27.3154C363.365 27.0693 362.979 26.7324 362.691 26.3047C362.41 25.8711 362.27 25.3789 362.27 24.8281C362.27 24.3301 362.363 23.8877 362.551 23.501C362.738 23.1143 363.014 22.7891 363.377 22.5254C363.746 22.2559 364.206 22.0537 364.757 21.9189C365.308 21.7783 365.946 21.708 366.673 21.708H368.141ZM376.235 25.6982C376.546 25.6982 376.821 25.6396 377.062 25.5225C377.302 25.3994 377.489 25.2295 377.624 25.0127C377.765 24.79 377.838 24.5293 377.844 24.2305H380.226C380.22 24.8984 380.041 25.4932 379.689 26.0146C379.338 26.5303 378.866 26.9375 378.274 27.2363C377.683 27.5293 377.021 27.6758 376.288 27.6758C375.55 27.6758 374.905 27.5527 374.354 27.3066C373.81 27.0605 373.355 26.7207 372.992 26.2871C372.629 25.8477 372.356 25.3379 372.175 24.7578C371.993 24.1719 371.902 23.5449 371.902 22.877V22.6221C371.902 21.9482 371.993 21.3213 372.175 20.7412C372.356 20.1553 372.629 19.6455 372.992 19.2119C373.355 18.7725 373.81 18.4297 374.354 18.1836C374.899 17.9375 375.538 17.8145 376.271 17.8145C377.05 17.8145 377.732 17.9639 378.318 18.2627C378.91 18.5615 379.373 18.9893 379.707 19.5459C380.047 20.0967 380.22 20.75 380.226 21.5059H377.844C377.838 21.1895 377.771 20.9023 377.642 20.6445C377.519 20.3867 377.337 20.1816 377.097 20.0293C376.862 19.8711 376.572 19.792 376.227 19.792C375.857 19.792 375.556 19.8711 375.321 20.0293C375.087 20.1816 374.905 20.3926 374.776 20.6621C374.647 20.9258 374.557 21.2275 374.504 21.5674C374.457 21.9014 374.434 22.2529 374.434 22.6221V22.877C374.434 23.2461 374.457 23.6006 374.504 23.9404C374.551 24.2803 374.639 24.582 374.768 24.8457C374.902 25.1094 375.087 25.3174 375.321 25.4697C375.556 25.6221 375.86 25.6982 376.235 25.6982Z" fill="#2B7FFF"/>
<path d="M438.327 14.7031H440.023V18.7021C440.023 19.3643 440.12 19.8828 440.313 20.2578C440.507 20.6328 440.8 20.8965 441.192 21.0488C441.585 21.2012 442.074 21.2773 442.66 21.2773C443.012 21.2773 443.352 21.2627 443.68 21.2334C444.014 21.2041 444.339 21.1631 444.655 21.1104C444.972 21.0576 445.282 20.9932 445.587 20.917C445.897 20.8408 446.202 20.7588 446.501 20.6709V22.0596C446.214 22.1475 445.927 22.2295 445.64 22.3057C445.358 22.3818 445.065 22.4463 444.761 22.499C444.462 22.5518 444.14 22.5928 443.794 22.6221C443.454 22.6514 443.076 22.666 442.66 22.666C441.758 22.666 440.981 22.5371 440.331 22.2793C439.687 22.0156 439.191 21.5938 438.846 21.0137C438.5 20.4336 438.327 19.6631 438.327 18.7021V14.7031ZM446.07 14.7031H447.767V27.5H446.07V14.7031ZM450.131 22.8506V22.6484C450.131 21.9629 450.23 21.3271 450.43 20.7412C450.629 20.1494 450.916 19.6367 451.291 19.2031C451.666 18.7637 452.12 18.4238 452.653 18.1836C453.187 17.9375 453.784 17.8145 454.446 17.8145C455.114 17.8145 455.715 17.9375 456.248 18.1836C456.787 18.4238 457.244 18.7637 457.619 19.2031C458 19.6367 458.29 20.1494 458.489 20.7412C458.688 21.3271 458.788 21.9629 458.788 22.6484V22.8506C458.788 23.5361 458.688 24.1719 458.489 24.7578C458.29 25.3438 458 25.8564 457.619 26.2959C457.244 26.7295 456.79 27.0693 456.257 27.3154C455.729 27.5557 455.132 27.6758 454.464 27.6758C453.796 27.6758 453.195 27.5557 452.662 27.3154C452.129 27.0693 451.672 26.7295 451.291 26.2959C450.916 25.8564 450.629 25.3438 450.43 24.7578C450.23 24.1719 450.131 23.5361 450.131 22.8506ZM451.757 22.6484V22.8506C451.757 23.3252 451.812 23.7734 451.924 24.1953C452.035 24.6113 452.202 24.9805 452.425 25.3027C452.653 25.625 452.938 25.8799 453.277 26.0674C453.617 26.249 454.013 26.3398 454.464 26.3398C454.909 26.3398 455.299 26.249 455.633 26.0674C455.973 25.8799 456.254 25.625 456.477 25.3027C456.699 24.9805 456.866 24.6113 456.978 24.1953C457.095 23.7734 457.153 23.3252 457.153 22.8506V22.6484C457.153 22.1797 457.095 21.7373 456.978 21.3213C456.866 20.8994 456.696 20.5273 456.468 20.2051C456.245 19.877 455.964 19.6191 455.624 19.4316C455.29 19.2441 454.897 19.1504 454.446 19.1504C454.001 19.1504 453.608 19.2441 453.269 19.4316C452.935 19.6191 452.653 19.877 452.425 20.2051C452.202 20.5273 452.035 20.8994 451.924 21.3213C451.812 21.7373 451.757 22.1797 451.757 22.6484ZM466.294 25.3379L469.528 17.9902H471.093L466.856 27.5H465.731L461.513 17.9902H463.077L466.294 25.3379ZM462.603 17.9902V27.5H460.977V17.9902H462.603ZM469.933 27.5V17.9902H471.567V27.5H469.933ZM476.858 26.5156L479.504 17.9902H481.244L477.43 28.9678C477.342 29.2021 477.225 29.4541 477.078 29.7236C476.938 29.999 476.756 30.2598 476.533 30.5059C476.311 30.752 476.041 30.9512 475.725 31.1035C475.414 31.2617 475.042 31.3408 474.608 31.3408C474.479 31.3408 474.315 31.3232 474.116 31.2881C473.917 31.2529 473.776 31.2236 473.694 31.2002L473.686 29.8818C473.732 29.8877 473.806 29.8936 473.905 29.8994C474.011 29.9111 474.084 29.917 474.125 29.917C474.494 29.917 474.808 29.8672 475.065 29.7676C475.323 29.6738 475.54 29.5127 475.716 29.2842C475.897 29.0615 476.053 28.7539 476.182 28.3613L476.858 26.5156ZM474.916 17.9902L477.386 25.373L477.808 27.0869L476.639 27.6846L473.141 17.9902H474.916ZM492.644 25.3379L495.878 17.9902H497.442L493.206 27.5H492.081L487.862 17.9902H489.427L492.644 25.3379ZM488.952 17.9902V27.5H487.326V17.9902H488.952ZM496.282 27.5V17.9902H497.917V27.5H496.282ZM502.294 24.9248L506.68 17.9902H508.314V27.5H506.68V20.5654L502.294 27.5H500.677V17.9902H502.294V24.9248Z" fill="#011C44"/>
<path d="M575.844 20.2051V21.585H568.918V20.2051H575.844ZM569.182 14.7031V27.5H567.485V14.7031H569.182ZM577.32 14.7031V27.5H575.633V14.7031H577.32ZM585.696 25.874V20.9785C585.696 20.6035 585.62 20.2783 585.468 20.0029C585.321 19.7217 585.099 19.5049 584.8 19.3525C584.501 19.2002 584.132 19.124 583.692 19.124C583.282 19.124 582.922 19.1943 582.611 19.335C582.307 19.4756 582.066 19.6602 581.891 19.8887C581.721 20.1172 581.636 20.3633 581.636 20.627H580.01C580.01 20.2871 580.098 19.9502 580.273 19.6162C580.449 19.2822 580.701 18.9805 581.029 18.7109C581.363 18.4355 581.762 18.2188 582.225 18.0605C582.693 17.8965 583.215 17.8145 583.789 17.8145C584.48 17.8145 585.09 17.9316 585.617 18.166C586.15 18.4004 586.566 18.7549 586.865 19.2295C587.17 19.6982 587.322 20.2871 587.322 20.9961V25.4258C587.322 25.7422 587.349 26.0791 587.401 26.4365C587.46 26.7939 587.545 27.1016 587.656 27.3594V27.5H585.96C585.878 27.3125 585.813 27.0635 585.767 26.7529C585.72 26.4365 585.696 26.1436 585.696 25.874ZM585.978 21.7344L585.995 22.877H584.352C583.889 22.877 583.476 22.915 583.112 22.9912C582.749 23.0615 582.444 23.1699 582.198 23.3164C581.952 23.4629 581.765 23.6475 581.636 23.8701C581.507 24.0869 581.442 24.3418 581.442 24.6348C581.442 24.9336 581.51 25.2061 581.645 25.4521C581.779 25.6982 581.981 25.8945 582.251 26.041C582.526 26.1816 582.863 26.252 583.262 26.252C583.76 26.252 584.199 26.1465 584.58 25.9355C584.961 25.7246 585.263 25.4668 585.485 25.1621C585.714 24.8574 585.837 24.5615 585.854 24.2744L586.549 25.0566C586.508 25.3027 586.396 25.5752 586.215 25.874C586.033 26.1729 585.79 26.46 585.485 26.7354C585.187 27.0049 584.829 27.2305 584.413 27.4121C584.003 27.5879 583.54 27.6758 583.024 27.6758C582.38 27.6758 581.814 27.5498 581.328 27.2979C580.848 27.0459 580.473 26.709 580.203 26.2871C579.939 25.8594 579.808 25.3818 579.808 24.8545C579.808 24.3447 579.907 23.8965 580.106 23.5098C580.306 23.1172 580.593 22.792 580.968 22.5342C581.343 22.2705 581.794 22.0713 582.321 21.9365C582.849 21.8018 583.438 21.7344 584.088 21.7344H585.978ZM590.021 17.9902H591.646V26.1641H595.127V17.9902H596.762V26.1641H600.233V17.9902H601.859V27.5H590.021V17.9902ZM606.219 17.9902V27.5H604.584V17.9902H606.219ZM604.461 15.4678C604.461 15.2041 604.54 14.9814 604.698 14.7998C604.862 14.6182 605.103 14.5273 605.419 14.5273C605.729 14.5273 605.967 14.6182 606.131 14.7998C606.301 14.9814 606.386 15.2041 606.386 15.4678C606.386 15.7197 606.301 15.9365 606.131 16.1182C605.967 16.2939 605.729 16.3818 605.419 16.3818C605.103 16.3818 604.862 16.2939 604.698 16.1182C604.54 15.9365 604.461 15.7197 604.461 15.4678ZM619.631 17.9902V19.335H614.823V17.9902H619.631ZM615.061 17.9902V27.5H613.435V17.9902H615.061ZM621.072 17.9902V27.5H619.438V17.9902H621.072ZM625.309 19.8184V31.1562H623.674V17.9902H625.168L625.309 19.8184ZM631.716 22.666V22.8506C631.716 23.542 631.634 24.1836 631.47 24.7754C631.306 25.3613 631.065 25.8711 630.749 26.3047C630.438 26.7383 630.055 27.0752 629.598 27.3154C629.141 27.5557 628.616 27.6758 628.024 27.6758C627.421 27.6758 626.888 27.5762 626.425 27.377C625.962 27.1777 625.569 26.8877 625.247 26.5068C624.925 26.126 624.667 25.6689 624.474 25.1357C624.286 24.6025 624.157 24.002 624.087 23.334V22.3496C624.157 21.6465 624.289 21.0166 624.482 20.46C624.676 19.9033 624.931 19.4287 625.247 19.0361C625.569 18.6377 625.959 18.3359 626.416 18.1309C626.873 17.9199 627.4 17.8145 627.998 17.8145C628.596 17.8145 629.126 17.9316 629.589 18.166C630.052 18.3945 630.441 18.7227 630.758 19.1504C631.074 19.5781 631.312 20.0908 631.47 20.6885C631.634 21.2803 631.716 21.9395 631.716 22.666ZM630.081 22.8506V22.666C630.081 22.1914 630.031 21.7461 629.932 21.3301C629.832 20.9082 629.677 20.5391 629.466 20.2227C629.261 19.9004 628.997 19.6484 628.675 19.4668C628.353 19.2793 627.969 19.1855 627.523 19.1855C627.113 19.1855 626.756 19.2559 626.451 19.3965C626.152 19.5371 625.897 19.7275 625.687 19.9678C625.476 20.2021 625.303 20.4717 625.168 20.7764C625.039 21.0752 624.942 21.3857 624.878 21.708V23.9844C624.995 24.3945 625.159 24.7812 625.37 25.1445C625.581 25.502 625.862 25.792 626.214 26.0146C626.565 26.2314 627.008 26.3398 627.541 26.3398C627.98 26.3398 628.358 26.249 628.675 26.0674C628.997 25.8799 629.261 25.625 629.466 25.3027C629.677 24.9805 629.832 24.6113 629.932 24.1953C630.031 23.7734 630.081 23.3252 630.081 22.8506ZM633.359 22.8506V22.6484C633.359 21.9629 633.459 21.3271 633.658 20.7412C633.857 20.1494 634.145 19.6367 634.52 19.2031C634.895 18.7637 635.349 18.4238 635.882 18.1836C636.415 17.9375 637.013 17.8145 637.675 17.8145C638.343 17.8145 638.943 17.9375 639.477 18.1836C640.016 18.4238 640.473 18.7637 640.848 19.2031C641.229 19.6367 641.519 20.1494 641.718 20.7412C641.917 21.3271 642.017 21.9629 642.017 22.6484V22.8506C642.017 23.5361 641.917 24.1719 641.718 24.7578C641.519 25.3438 641.229 25.8564 640.848 26.2959C640.473 26.7295 640.019 27.0693 639.485 27.3154C638.958 27.5557 638.36 27.6758 637.692 27.6758C637.024 27.6758 636.424 27.5557 635.891 27.3154C635.357 27.0693 634.9 26.7295 634.52 26.2959C634.145 25.8564 633.857 25.3438 633.658 24.7578C633.459 24.1719 633.359 23.5361 633.359 22.8506ZM634.985 22.6484V22.8506C634.985 23.3252 635.041 23.7734 635.152 24.1953C635.264 24.6113 635.431 24.9805 635.653 25.3027C635.882 25.625 636.166 25.8799 636.506 26.0674C636.846 26.249 637.241 26.3398 637.692 26.3398C638.138 26.3398 638.527 26.249 638.861 26.0674C639.201 25.8799 639.482 25.625 639.705 25.3027C639.928 24.9805 640.095 24.6113 640.206 24.1953C640.323 23.7734 640.382 23.3252 640.382 22.8506V22.6484C640.382 22.1797 640.323 21.7373 640.206 21.3213C640.095 20.8994 639.925 20.5273 639.696 20.2051C639.474 19.877 639.192 19.6191 638.853 19.4316C638.519 19.2441 638.126 19.1504 637.675 19.1504C637.229 19.1504 636.837 19.2441 636.497 19.4316C636.163 19.6191 635.882 19.877 635.653 20.2051C635.431 20.5273 635.264 20.8994 635.152 21.3213C635.041 21.7373 634.985 22.1797 634.985 22.6484ZM644.196 27.5V17.9902H645.822V26.1641H650.199V17.9902H651.834V27.5H644.196ZM652.959 26.1641L652.801 30.3213H651.351V27.5H650.111V26.1641H652.959ZM658.672 27.6758C658.01 27.6758 657.409 27.5645 656.87 27.3418C656.337 27.1133 655.877 26.7939 655.49 26.3838C655.109 25.9736 654.816 25.4873 654.611 24.9248C654.406 24.3623 654.304 23.7471 654.304 23.0791V22.71C654.304 21.9365 654.418 21.248 654.646 20.6445C654.875 20.0352 655.186 19.5195 655.578 19.0977C655.971 18.6758 656.416 18.3564 656.914 18.1396C657.412 17.9229 657.928 17.8145 658.461 17.8145C659.141 17.8145 659.727 17.9316 660.219 18.166C660.717 18.4004 661.124 18.7285 661.44 19.1504C661.757 19.5664 661.991 20.0586 662.144 20.627C662.296 21.1895 662.372 21.8047 662.372 22.4727V23.2021H655.271V21.875H660.746V21.752C660.723 21.3301 660.635 20.9199 660.482 20.5215C660.336 20.123 660.102 19.7949 659.779 19.5371C659.457 19.2793 659.018 19.1504 658.461 19.1504C658.092 19.1504 657.752 19.2295 657.441 19.3877C657.131 19.54 656.864 19.7686 656.642 20.0732C656.419 20.3779 656.246 20.75 656.123 21.1895C656 21.6289 655.938 22.1357 655.938 22.71V23.0791C655.938 23.5303 656 23.9551 656.123 24.3535C656.252 24.7461 656.437 25.0918 656.677 25.3906C656.923 25.6895 657.219 25.9238 657.564 26.0938C657.916 26.2637 658.314 26.3486 658.76 26.3486C659.334 26.3486 659.82 26.2314 660.219 25.9971C660.617 25.7627 660.966 25.4492 661.265 25.0566L662.249 25.8389C662.044 26.1494 661.783 26.4453 661.467 26.7266C661.15 27.0078 660.761 27.2363 660.298 27.4121C659.841 27.5879 659.299 27.6758 658.672 27.6758ZM665.984 17.9902H667.61L667.47 21.5498C667.435 22.4521 667.332 23.2314 667.162 23.8877C666.992 24.5439 666.775 25.1035 666.512 25.5664C666.248 26.0234 665.952 26.4072 665.624 26.7178C665.302 27.0283 664.968 27.2891 664.622 27.5H663.813L663.857 26.1729L664.191 26.1641C664.385 25.9355 664.572 25.7012 664.754 25.4609C664.936 25.2148 665.103 24.9248 665.255 24.5908C665.407 24.251 665.533 23.8379 665.633 23.3516C665.738 22.8594 665.806 22.2588 665.835 21.5498L665.984 17.9902ZM666.389 17.9902H672.11V27.5H670.484V19.4932H666.389V17.9902ZM663.444 26.1641H673.332V30.3037H671.706V27.5H665.07V30.3037H663.436L663.444 26.1641ZM677.806 26.5156L680.451 17.9902H682.191L678.377 28.9678C678.289 29.2021 678.172 29.4541 678.025 29.7236C677.885 29.999 677.703 30.2598 677.48 30.5059C677.258 30.752 676.988 30.9512 676.672 31.1035C676.361 31.2617 675.989 31.3408 675.556 31.3408C675.427 31.3408 675.263 31.3232 675.063 31.2881C674.864 31.2529 674.724 31.2236 674.642 31.2002L674.633 29.8818C674.68 29.8877 674.753 29.8936 674.853 29.8994C674.958 29.9111 675.031 29.917 675.072 29.917C675.441 29.917 675.755 29.8672 676.013 29.7676C676.271 29.6738 676.487 29.5127 676.663 29.2842C676.845 29.0615 677 28.7539 677.129 28.3613L677.806 26.5156ZM675.863 17.9902L678.333 25.373L678.755 27.0869L677.586 27.6846L674.088 17.9902H675.863ZM685.285 19.8184V31.1562H683.65V17.9902H685.145L685.285 19.8184ZM691.692 22.666V22.8506C691.692 23.542 691.61 24.1836 691.446 24.7754C691.282 25.3613 691.042 25.8711 690.726 26.3047C690.415 26.7383 690.031 27.0752 689.574 27.3154C689.117 27.5557 688.593 27.6758 688.001 27.6758C687.397 27.6758 686.864 27.5762 686.401 27.377C685.938 27.1777 685.546 26.8877 685.224 26.5068C684.901 26.126 684.644 25.6689 684.45 25.1357C684.263 24.6025 684.134 24.002 684.063 23.334V22.3496C684.134 21.6465 684.266 21.0166 684.459 20.46C684.652 19.9033 684.907 19.4287 685.224 19.0361C685.546 18.6377 685.936 18.3359 686.393 18.1309C686.85 17.9199 687.377 17.8145 687.975 17.8145C688.572 17.8145 689.103 17.9316 689.565 18.166C690.028 18.3945 690.418 18.7227 690.734 19.1504C691.051 19.5781 691.288 20.0908 691.446 20.6885C691.61 21.2803 691.692 21.9395 691.692 22.666ZM690.058 22.8506V22.666C690.058 22.1914 690.008 21.7461 689.908 21.3301C689.809 20.9082 689.653 20.5391 689.442 20.2227C689.237 19.9004 688.974 19.6484 688.651 19.4668C688.329 19.2793 687.945 19.1855 687.5 19.1855C687.09 19.1855 686.732 19.2559 686.428 19.3965C686.129 19.5371 685.874 19.7275 685.663 19.9678C685.452 20.2021 685.279 20.4717 685.145 20.7764C685.016 21.0752 684.919 21.3857 684.854 21.708V23.9844C684.972 24.3945 685.136 24.7812 685.347 25.1445C685.558 25.502 685.839 25.792 686.19 26.0146C686.542 26.2314 686.984 26.3398 687.518 26.3398C687.957 26.3398 688.335 26.249 688.651 26.0674C688.974 25.8799 689.237 25.625 689.442 25.3027C689.653 24.9805 689.809 24.6113 689.908 24.1953C690.008 23.7734 690.058 23.3252 690.058 22.8506ZM695.524 24.9248L699.91 17.9902H701.545V27.5H699.91V20.5654L695.524 27.5H693.907V17.9902H695.524V24.9248Z" fill="#011C44"/>
<path d="M762.261 14.7031V27.5H760.564V14.7031H762.261ZM770.145 14.7031L764.59 21.7432H761.584L761.32 20.3369H763.579L768.044 14.7031H770.145ZM768.439 27.5L763.632 21.5234L764.581 20.0381L770.514 27.5H768.439ZM771.129 22.8506V22.6484C771.129 21.9629 771.229 21.3271 771.428 20.7412C771.627 20.1494 771.914 19.6367 772.289 19.2031C772.664 18.7637 773.118 18.4238 773.651 18.1836C774.185 17.9375 774.782 17.8145 775.444 17.8145C776.112 17.8145 776.713 17.9375 777.246 18.1836C777.785 18.4238 778.242 18.7637 778.617 19.2031C778.998 19.6367 779.288 20.1494 779.487 20.7412C779.687 21.3271 779.786 21.9629 779.786 22.6484V22.8506C779.786 23.5361 779.687 24.1719 779.487 24.7578C779.288 25.3438 778.998 25.8564 778.617 26.2959C778.242 26.7295 777.788 27.0693 777.255 27.3154C776.728 27.5557 776.13 27.6758 775.462 27.6758C774.794 27.6758 774.193 27.5557 773.66 27.3154C773.127 27.0693 772.67 26.7295 772.289 26.2959C771.914 25.8564 771.627 25.3438 771.428 24.7578C771.229 24.1719 771.129 23.5361 771.129 22.8506ZM772.755 22.6484V22.8506C772.755 23.3252 772.811 23.7734 772.922 24.1953C773.033 24.6113 773.2 24.9805 773.423 25.3027C773.651 25.625 773.936 25.8799 774.275 26.0674C774.615 26.249 775.011 26.3398 775.462 26.3398C775.907 26.3398 776.297 26.249 776.631 26.0674C776.971 25.8799 777.252 25.625 777.475 25.3027C777.697 24.9805 777.864 24.6113 777.976 24.1953C778.093 23.7734 778.151 23.3252 778.151 22.8506V22.6484C778.151 22.1797 778.093 21.7373 777.976 21.3213C777.864 20.8994 777.694 20.5273 777.466 20.2051C777.243 19.877 776.962 19.6191 776.622 19.4316C776.288 19.2441 775.896 19.1504 775.444 19.1504C774.999 19.1504 774.606 19.2441 774.267 19.4316C773.933 19.6191 773.651 19.877 773.423 20.2051C773.2 20.5273 773.033 20.8994 772.922 21.3213C772.811 21.7373 772.755 22.1797 772.755 22.6484ZM788.276 22.1123V23.4307H783.249V22.1123H788.276ZM783.592 17.9902V27.5H781.966V17.9902H783.592ZM789.595 17.9902V27.5H787.96V17.9902H789.595ZM796.09 17.9902V27.5H794.455V17.9902H796.09ZM799.28 17.9902V19.3086H791.326V17.9902H799.28ZM806.347 25.874V20.9785C806.347 20.6035 806.271 20.2783 806.118 20.0029C805.972 19.7217 805.749 19.5049 805.45 19.3525C805.151 19.2002 804.782 19.124 804.343 19.124C803.933 19.124 803.572 19.1943 803.262 19.335C802.957 19.4756 802.717 19.6602 802.541 19.8887C802.371 20.1172 802.286 20.3633 802.286 20.627H800.66C800.66 20.2871 800.748 19.9502 800.924 19.6162C801.1 19.2822 801.352 18.9805 801.68 18.7109C802.014 18.4355 802.412 18.2188 802.875 18.0605C803.344 17.8965 803.865 17.8145 804.439 17.8145C805.131 17.8145 805.74 17.9316 806.268 18.166C806.801 18.4004 807.217 18.7549 807.516 19.2295C807.82 19.6982 807.973 20.2871 807.973 20.9961V25.4258C807.973 25.7422 807.999 26.0791 808.052 26.4365C808.11 26.7939 808.195 27.1016 808.307 27.3594V27.5H806.61C806.528 27.3125 806.464 27.0635 806.417 26.7529C806.37 26.4365 806.347 26.1436 806.347 25.874ZM806.628 21.7344L806.646 22.877H805.002C804.539 22.877 804.126 22.915 803.763 22.9912C803.399 23.0615 803.095 23.1699 802.849 23.3164C802.603 23.4629 802.415 23.6475 802.286 23.8701C802.157 24.0869 802.093 24.3418 802.093 24.6348C802.093 24.9336 802.16 25.2061 802.295 25.4521C802.43 25.6982 802.632 25.8945 802.901 26.041C803.177 26.1816 803.514 26.252 803.912 26.252C804.41 26.252 804.85 26.1465 805.23 25.9355C805.611 25.7246 805.913 25.4668 806.136 25.1621C806.364 24.8574 806.487 24.5615 806.505 24.2744L807.199 25.0566C807.158 25.3027 807.047 25.5752 806.865 25.874C806.684 26.1729 806.44 26.46 806.136 26.7354C805.837 27.0049 805.479 27.2305 805.063 27.4121C804.653 27.5879 804.19 27.6758 803.675 27.6758C803.03 27.6758 802.465 27.5498 801.979 27.2979C801.498 27.0459 801.123 26.709 800.854 26.2871C800.59 25.8594 800.458 25.3818 800.458 24.8545C800.458 24.3447 800.558 23.8965 800.757 23.5098C800.956 23.1172 801.243 22.792 801.618 22.5342C801.993 22.2705 802.444 22.0713 802.972 21.9365C803.499 21.8018 804.088 21.7344 804.738 21.7344H806.628ZM812.297 17.9902V27.5H810.671V17.9902H812.297ZM818.537 17.9902L814.028 23.4395H811.752L811.506 22.0156H813.369L816.56 17.9902H818.537ZM816.788 27.5L813.29 23.1934L814.336 22.0156L818.854 27.5H816.788ZM824.145 17.9902V27.5H822.51V17.9902H824.145ZM827.335 17.9902V19.3086H819.381V17.9902H827.335ZM830.692 24.9248L835.078 17.9902H836.713V27.5H835.078V20.5654L830.692 27.5H829.075V17.9902H830.692V24.9248Z" fill="#011C44"/>
<path d="M1106.65 27.9573L1106.48 27.7413C1105.11 26.0066 1103.96 25.104 1102.98 24.9853C1102.13 24.8693 1101.31 25.4573 1100.43 26.0626L1099.5 26.6466C1099.38 26.7026 1099.27 26.748 1099.17 26.7786C1098.62 26.9333 1097.24 27.024 1096.46 26.3093C1095.55 25.4773 1094.14 23.9546 1093.04 22.624C1092 21.2466 1090.84 19.5293 1090.24 18.448C1089.73 17.532 1090.16 16.2506 1090.44 15.776C1090.5 15.6826 1090.57 15.5906 1090.65 15.5L1091.48 14.7386C1091.49 14.7266 1091.5 14.712 1091.51 14.7013C1091.51 14.6933 1091.53 14.696 1091.54 14.6893C1092.28 14.0613 1093.05 13.4146 1093.16 12.584C1093.28 11.608 1092.67 10.288 1091.3 8.55465L1091.13 8.33865C1090.28 7.24798 1088.99 5.59865 1087.15 5.87065C1086.42 5.97865 1085.77 6.22665 1085.1 6.64665C1085.09 6.65065 1085.09 6.65865 1085.08 6.66265C1085.08 6.66665 1085.07 6.66665 1085.07 6.67065L1084.13 7.36131C1084.13 7.36665 1084.12 7.37865 1084.11 7.38665C1084.1 7.39331 1084.09 7.39465 1084.09 7.40131C1083.98 7.49198 1083.87 7.58531 1083.76 7.68131C1082.82 8.52398 1080.77 10.9706 1082.17 15.496C1083.07 18.4186 1084.93 21.8293 1087.55 25.3786L1087.53 25.4L1088.98 27.2053L1088.99 27.196C1091.84 30.5666 1094.74 33.172 1097.4 34.7493C1099.17 35.8026 1100.72 36.1506 1101.99 36.1506C1103.67 36.1506 1104.87 35.548 1105.48 35.156L1105.85 34.9026C1105.9 34.8733 1105.93 34.832 1105.96 34.7946L1106.78 34.1733C1106.79 34.1653 1106.8 34.1546 1106.81 34.1466C1106.81 34.1426 1106.82 34.144 1106.82 34.14C1107.41 33.604 1107.82 33.0426 1108.1 32.3773C1108.83 30.672 1107.52 29.0386 1106.65 27.9573ZM1107.12 31.9586C1106.9 32.476 1106.58 32.916 1106.11 33.3426L1104.89 34.2666C1103.77 34.9893 1101.4 35.8826 1097.94 33.832C1095.29 32.2546 1092.36 29.588 1089.48 26.12L1088.7 25.136C1085.99 21.5413 1084.09 18.0986 1083.19 15.1813C1082.02 11.388 1083.49 9.35331 1084.48 8.47465C1084.58 8.38398 1084.68 8.29998 1084.78 8.21598L1084.78 8.21198L1085.67 7.54931C1086.22 7.20531 1086.72 7.01331 1087.3 6.92531C1088.54 6.73865 1089.55 8.04531 1090.29 8.99465L1090.46 9.21465C1092 11.152 1092.15 12.0733 1092.1 12.4493C1092.05 12.8666 1091.41 13.4013 1090.85 13.872L1090.77 13.9386C1090.77 13.9413 1090.77 13.9453 1090.77 13.948C1090.76 13.9506 1090.76 13.952 1090.75 13.9546L1089.9 14.7426C1089.9 14.748 1089.89 14.7546 1089.89 14.7613C1089.88 14.768 1089.87 14.7706 1089.87 14.7773C1089.73 14.9253 1089.62 15.0733 1089.53 15.2266C1089.05 16.028 1088.6 17.684 1089.31 18.9653C1089.93 20.0853 1091.12 21.8546 1092.21 23.284C1093.35 24.6653 1094.8 26.2333 1095.74 27.0933C1096.45 27.7373 1097.43 27.9533 1098.28 27.9533C1098.73 27.9533 1099.15 27.8906 1099.47 27.8013C1099.63 27.7533 1099.8 27.684 1099.98 27.5973C1099.99 27.592 1100 27.5826 1100.01 27.576C1100.01 27.5733 1100.02 27.5746 1100.03 27.5706L1101.02 26.952C1101.05 26.9306 1101.07 26.9026 1101.1 26.876L1101.11 26.8893C1101.72 26.4666 1102.41 25.9706 1102.85 26.0426C1103.23 26.0893 1104.11 26.46 1105.65 28.4026L1105.82 28.6253C1106.57 29.56 1107.6 30.84 1107.12 31.9586Z" fill="#011C44"/>
<path d="M1166.99 7.12809C1165.64 6.98541 1164.29 6.91598 1162.94 6.92009C1158.45 6.92009 1155.67 9.77609 1155.67 14.3734V17.4948H1151.9C1151.72 17.4948 1151.55 17.565 1151.43 17.69C1151.3 17.815 1151.23 17.9846 1151.23 18.1614V23.2948C1151.23 23.4716 1151.3 23.6411 1151.43 23.7662C1151.55 23.8912 1151.72 23.9614 1151.9 23.9614H1155.67V34.2548C1155.67 34.4316 1155.74 34.6011 1155.86 34.7262C1155.99 34.8512 1156.16 34.9214 1156.33 34.9214H1161.64C1161.81 34.9214 1161.98 34.8512 1162.11 34.7262C1162.23 34.6011 1162.3 34.4316 1162.3 34.2548V23.9614H1166.06C1166.22 23.9615 1166.38 23.9027 1166.5 23.796C1166.62 23.6893 1166.7 23.5419 1166.72 23.3814L1167.38 18.2481C1167.4 18.154 1167.39 18.0584 1167.36 17.9676C1167.33 17.8768 1167.29 17.7929 1167.22 17.7216C1167.16 17.6503 1167.08 17.5932 1167 17.554C1166.91 17.5149 1166.82 17.4947 1166.72 17.4948H1162.3V14.8828C1162.3 13.5894 1162.56 13.0494 1164.18 13.0494H1166.9C1167.08 13.0494 1167.25 12.9792 1167.37 12.8542C1167.5 12.7291 1167.57 12.5596 1167.57 12.3828V7.78943C1167.57 7.62757 1167.51 7.47122 1167.4 7.34953C1167.29 7.22784 1167.15 7.14914 1166.99 7.12809ZM1166.23 11.7148L1164.18 11.7161C1161.3 11.7161 1160.97 13.5241 1160.97 14.8828V18.1628C1160.97 18.3393 1161.04 18.5087 1161.17 18.6337C1161.29 18.7587 1161.46 18.8291 1161.64 18.8294H1165.96L1165.47 22.6294H1161.64C1161.46 22.6294 1161.29 22.6997 1161.17 22.8247C1161.04 22.9497 1160.97 23.1193 1160.97 23.2961V33.5868H1157V23.2961C1157 23.1193 1156.93 22.9497 1156.8 22.8247C1156.68 22.6997 1156.51 22.6294 1156.33 22.6294H1152.57V18.8294H1156.33C1156.51 18.8294 1156.68 18.7592 1156.8 18.6342C1156.93 18.5091 1157 18.3396 1157 18.1628V14.3734C1157 10.5414 1159.22 8.25343 1162.94 8.25343C1164.28 8.25343 1165.5 8.32676 1166.23 8.39076V11.7148Z" fill="#011C44"/>
<path d="M1223 15.25C1221.86 15.25 1220.75 15.5872 1219.81 16.219C1218.86 16.8509 1218.12 17.7489 1217.69 18.7996C1217.25 19.8502 1217.14 21.0064 1217.36 22.1218C1217.58 23.2372 1218.13 24.2617 1218.93 25.0659C1219.74 25.87 1220.76 26.4177 1221.88 26.6395C1222.99 26.8614 1224.15 26.7475 1225.2 26.3123C1226.25 25.8771 1227.15 25.1401 1227.78 24.1945C1228.41 23.2489 1228.75 22.1372 1228.75 21C1228.75 19.475 1228.14 18.0125 1227.07 16.9341C1225.99 15.8558 1224.52 15.25 1223 15.25ZM1223 25.25C1222.16 25.25 1221.34 25.0007 1220.64 24.5337C1219.94 24.0668 1219.4 23.403 1219.07 22.6264C1218.75 21.8498 1218.67 20.9953 1218.83 20.1709C1219 19.3464 1219.4 18.5892 1219.99 17.9948C1220.59 17.4004 1221.35 16.9956 1222.17 16.8317C1223 16.6677 1223.85 16.7518 1224.63 17.0735C1225.4 17.3952 1226.07 17.9399 1226.53 18.6388C1227 19.3377 1227.25 20.1594 1227.25 21C1227.25 22.1262 1226.8 23.2052 1226 24.0016C1225.21 24.7979 1224.13 25.2467 1223 25.25ZM1228.5 8.75H1217.5C1215.71 8.75 1213.99 9.46116 1212.73 10.727C1211.46 11.9929 1210.75 13.7098 1210.75 15.5V26.5C1210.75 28.2902 1211.46 30.0071 1212.73 31.273C1213.99 32.5388 1215.71 33.25 1217.5 33.25H1228.5C1230.29 33.25 1232.01 32.5388 1233.27 31.273C1234.54 30.0071 1235.25 28.2902 1235.25 26.5V15.5C1235.25 13.7098 1234.54 11.9929 1233.27 10.727C1232.01 9.46116 1230.29 8.75 1228.5 8.75ZM1233.75 26.5C1233.75 27.8924 1233.2 29.2277 1232.21 30.2123C1231.23 31.1969 1229.89 31.75 1228.5 31.75H1217.5C1216.11 31.75 1214.77 31.1969 1213.79 30.2123C1212.8 29.2277 1212.25 27.8924 1212.25 26.5V15.5C1212.25 14.1076 1212.8 12.7723 1213.79 11.7877C1214.77 10.8031 1216.11 10.25 1217.5 10.25H1228.5C1229.89 10.25 1231.23 10.8031 1232.21 11.7877C1233.2 12.7723 1233.75 14.1076 1233.75 15.5V26.5ZM1230.75 14.5C1230.75 14.7472 1230.68 14.9889 1230.54 15.1945C1230.4 15.4 1230.21 15.5602 1229.98 15.6548C1229.75 15.7495 1229.5 15.7742 1229.26 15.726C1229.01 15.6778 1228.79 15.5587 1228.62 15.3839C1228.44 15.2091 1228.32 14.9863 1228.27 14.7439C1228.23 14.5014 1228.25 14.2501 1228.35 14.0216C1228.44 13.7932 1228.6 13.598 1228.81 13.4607C1229.01 13.3233 1229.25 13.25 1229.5 13.25C1229.83 13.25 1230.15 13.3817 1230.38 13.6161C1230.62 13.8505 1230.75 14.1685 1230.75 14.5Z" fill="#011C44"/>
</svg>
